<svg width="512" height="512" xmlns="http://www.w3.org/2000/svg">
 <g id="Layer_1">
  <title>Layer 1</title>
  <ellipse ry="244.99376" rx="245.35713" id="svg_11" cy="256" cx="256" stroke-width="0" fill="#513a8a" stroke="null"/>
  <g stroke-width="0" stroke="null" fill="#849854" id="svg_13">
   <g stroke="null" id="svg_14">
    <path stroke="null" fill="#ffffff" d="m511.21059,372.70205c0.02223,-0.01334 0.04891,-0.02223 0.07114,-0.03557l-1.07592,-1.94732l-0.77359,-2.08515c-12.84434,4.77495 -24.35933,4.50819 -35.20299,-0.81805c-34.66503,-17.02352 -54.93855,-82.15662 -74.55406,-145.14233c-18.97085,-60.91834 -36.87912,-118.46666 -67.05819,-126.65609c-12.3375,-3.35669 -25.51528,1.56053 -40.29805,15.03619c-21.23828,20.22905 -41.03607,63.66594 -60.19365,105.67567c-22.86105,50.15471 -46.50014,102.01221 -69.2367,104.15516c-15.32073,1.52941 -31.09939,-18.98419 -47.74945,-40.60926c-27.83606,-36.14553 -62.48331,-81.12961 -114.08295,-48.66087l1.01812,1.62277c-0.37346,0.25786 -0.74247,0.46682 -1.11593,0.73358l1.06703,1.50718c-0.3868,0.29343 -0.76915,0.53796 -1.15595,0.84028l1.10704,1.40492c-0.39569,0.329 -0.79138,0.60465 -1.18707,0.94699l1.12927,1.30266c-0.40014,0.36457 -0.80027,0.66689 -1.20041,1.0448l3.04992,3.24109c11.71507,-11.04373 22.63431,-15.36519 33.3357,-13.23113c28.16506,5.62412 50.94609,56.48573 71.04176,101.35866c20.30463,45.33086 37.89724,84.61523 60.22922,84.61523c0.48905,0 0.98255,-0.01778 1.4805,-0.0578c31.77517,-2.45861 43.5347,-44.95295 57.15263,-94.16067c9.66104,-34.91845 20.6114,-74.48292 40.41809,-102.7369c17.61928,-24.04812 33.34459,-35.15409 48.09179,-33.91812c26.39558,2.1963 47.28707,43.70809 69.40565,87.6607c23.42124,46.5446 47.64719,94.66307 82.3478,105.32889c13.818,4.25032 28.57409,2.10293 43.83702,-6.36659c0.00889,0 0.01778,-0.00445 0.02668,-0.00889l0,0c0.02668,-0.01334 0.05335,-0.02223 0.07558,-0.04001l0,0l-0.00003,-0.00002zm-401.42884,-64.3595c19.50881,34.61613 36.27447,64.49733 56.79695,62.78564c28.60521,-2.42749 46.42456,-50.54595 65.29315,-101.48315c14.34707,-38.73307 29.18318,-78.7866 49.55451,-102.49238c15.32517,-17.83713 28.85418,-25.50194 41.30728,-23.41235c26.70235,4.46373 46.05555,53.12015 66.54691,104.63087c11.29715,28.39181 22.79881,57.2371 36.14109,80.56942c-12.48421,-20.46913 -23.67466,-45.3931 -34.67837,-69.93027c-21.8785,-48.82537 -42.55659,-94.94316 -71.43745,-98.45546c-15.14289,-1.85841 -31.00158,8.0605 -48.37188,30.29912c-20.74923,26.55118 -33.51354,65.90669 -45.85103,103.96843c-15.44077,47.61163 -30.01902,92.58681 -57.22376,94.78755c-18.67297,1.59165 -36.31448,-33.74472 -54.92965,-71.06843c-7.82042,-15.68529 -15.74754,-31.55287 -24.1237,-45.67764c7.36249,11.36828 14.32039,23.6791 20.97597,35.47864l-0.00002,0.00001zm-27.78716,-52.96899c10.28792,12.22635 19.76223,26.7557 28.6719,40.47144c18.86415,29.02313 35.1941,54.07159 54.2761,52.37768c26.92464,-2.40526 47.38044,-51.84861 69.03664,-104.19073c16.62339,-40.16912 33.80697,-81.70758 54.42282,-103.30598c14.34707,-15.02729 26.91131,-21.13602 38.44853,-18.65519c27.10248,5.81974 45.59761,58.25967 65.17756,113.77618c9.82998,27.86718 19.81558,56.16563 31.34836,80.07592c-10.74585,-20.8915 -20.43356,-45.21526 -29.96567,-69.19225c-20.96263,-52.70668 -40.76487,-102.49238 -69.93472,-107.36958c-14.12032,-2.35191 -28.99201,5.77973 -45.42422,24.90174c-20.8915,24.30598 -35.86544,64.74185 -50.35033,103.84394c-18.36175,49.57229 -35.70983,96.41032 -61.50076,98.59773c-17.53036,1.4805 -34.56278,-28.63633 -52.54663,-60.53599c-9.75885,-17.31251 -20.15792,-35.72317 -31.65958,-50.79492l0,0.00001zm29.62333,27.61821c18.17502,23.60352 33.83809,44.00597 51.68856,42.3254c25.29743,-2.38303 48.40301,-53.07125 72.8646,-106.72936c18.97529,-41.62294 38.59525,-84.65969 59.17553,-104.26631c13.53346,-12.3375 25.34633,-16.91238 36.10552,-14.00028c27.82273,7.54921 45.37976,63.96381 63.9816,123.69509c8.89634,28.57854 17.93494,57.57499 28.45405,82.51674c-9.96336,-22.01632 -18.87748,-47.2604 -27.66712,-72.16214c-20.0112,-56.72581 -38.91091,-110.3039 -68.44533,-116.64382c-13.16444,-2.82318 -27.10248,3.69458 -42.5966,19.93562c-21.19382,22.1986 -38.53745,64.12831 -55.312,104.67533c-21.12713,51.05723 -41.08498,99.29129 -65.32427,101.45202c-16.42332,1.51607 -32.82441,-23.71023 -50.15471,-50.37701c-11.41274,-17.55259 -23.71023,-36.43008 -37.6616,-50.39923c12.6665,11.13709 24.06146,25.91097 34.89178,39.97794l-0.00001,0.00001zm204.26895,-101.29197c-16.37886,-1.36935 -33.43795,10.31904 -52.07536,35.75874c-20.27351,28.91643 -31.32613,68.88103 -41.08943,104.14182c-13.16889,47.59384 -24.54606,88.69661 -53.20907,90.91069c-19.90894,1.54274 -38.07507,-39.00428 -57.30823,-81.94766c-5.87754,-13.12443 -11.81288,-26.36446 -17.95273,-38.8131c5.07282,9.49654 9.96336,19.27762 14.69385,28.77416c19.65552,39.40886 36.68794,73.58484 57.69948,73.58039c0.52018,0 1.0448,-0.02223 1.57386,-0.06669c30.15685,-2.44082 44.49502,-46.6513 61.09173,-97.85081c12.2219,-37.69272 24.86173,-76.67033 45.12634,-102.59908c16.3344,-20.90483 30.85931,-30.2591 44.33497,-28.623c26.38668,3.20997 46.56683,48.21183 67.92071,95.85902c12.19523,27.20474 24.62164,54.83629 38.91536,76.66143c-13.16,-18.93528 -25.04401,-42.50324 -36.71462,-65.68884c-22.69655,-45.09967 -44.1349,-87.69627 -73.00687,-90.09708l0.00001,0.00001z" id="svg_15"/>
   </g>
   <g stroke="null" id="svg_16"/>
   <g stroke="null" id="svg_17"/>
   <g stroke="null" id="svg_18"/>
   <g stroke="null" id="svg_19"/>
   <g stroke="null" id="svg_20"/>
   <g stroke="null" id="svg_21"/>
   <g stroke="null" id="svg_22"/>
   <g stroke="null" id="svg_23"/>
   <g stroke="null" id="svg_24"/>
   <g stroke="null" id="svg_25"/>
   <g stroke="null" id="svg_26"/>
   <g stroke="null" id="svg_27"/>
   <g stroke="null" id="svg_28"/>
   <g stroke="null" id="svg_29"/>
   <g stroke="null" id="svg_30"/>
  </g>
  <g id="svg_31" stroke="null">
   <line stroke-width="1px" y2="384.09691" x2="0.11413" y1="511.54689" x1="391.46709" id="svg_32" fill="#000000" stroke="rgba(255,255,255,0.05)"/>
   <line stroke-width="1px" y2="205.66694" x2="0.11413" y1="511.54689" x1="391.46709" id="svg_33" fill="#000000" stroke="rgba(255,255,255,0.05)"/>
   <line stroke-width="1px" y2="1.74697" x2="0.11413" y1="511.54689" x1="391.46709" id="svg_34" fill="#000000" stroke="rgba(255,255,255,0.05)"/>
   <line stroke-width="1px" y2="1.74697" x2="139.88304" y1="511.54689" x1="391.46709" id="svg_35" fill="#000000" stroke="rgba(255,255,255,0.05)"/>
   <line stroke-width="1px" y2="1.74697" x2="242.38025" y1="511.54689" x1="391.46709" id="svg_36" fill="#000000" stroke="rgba(255,255,255,0.05)"/>
   <line stroke-width="1px" y2="1.74697" x2="326.24159" y1="511.54689" x1="391.46709" id="svg_37" fill="#000000" stroke="rgba(255,255,255,0.05)"/>
   <line y1="256.64693" stroke-width="1px" y2="511.54689" x2="326.24159" x1="512.60014" id="svg_38" fill="#000000" stroke="rgba(255,255,255,0.05)"/>
   <line y1="256.64693" stroke-width="1px" y2="511.54689" x2="279.65195" x1="466.0105" id="svg_39" fill="#000000" stroke="rgba(255,255,255,0.05)"/>
   <line y1="256.64693" stroke-width="1px" y2="511.54689" x2="214.42647" x1="400.78502" id="svg_40" fill="#000000" stroke="rgba(255,255,255,0.05)"/>
   <line y1="256.64693" stroke-width="1px" y2="511.54689" x2="130.56512" x1="316.92367" id="svg_41" fill="#000000" stroke="rgba(255,255,255,0.05)"/>
   <line y1="256.64693" stroke-width="1px" y2="511.54689" x2="28.06791" x1="214.42647" id="svg_42" fill="#000000" stroke="rgba(255,255,255,0.05)"/>
  </g>
 </g>

</svg>